<?xml version="1.0" encoding="UTF-8"?>
<svg id="Livello_1" data-name="Livello 1" xmlns="http://www.w3.org/2000/svg" xmlns:xlink="http://www.w3.org/1999/xlink" viewBox="0 0 1000 1000">
  <defs>
    <style>
      .cls-1 {
        fill: #01c2c8;
      }

      .cls-2 {
        fill: #01bcd8;
      }

      .cls-3 {
        fill: #01b7e6;
      }

      .cls-4 {
        fill: #01bed1;
      }

      .cls-5 {
        fill: #01bed3;
      }

      .cls-6 {
        fill: #00c5be;
      }

      .cls-7 {
        fill: #00c3c3;
      }

      .cls-8 {
        fill: #00badd;
      }

      .cls-9 {
        fill: #00bcd8;
      }

      .cls-10 {
        fill: #00b8e2;
      }

      .cls-11 {
        fill: #03c2c8;
      }

      .cls-12 {
        fill: #67cca5;
      }

      .cls-13 {
        fill: #fefefe;
      }

      .cls-14 {
        fill: #10c6b9;
      }

      .cls-15 {
        fill: #1cc7b8;
      }

      .cls-16 {
        fill: #3cc9b2;
      }

      .cls-17 {
        fill: #6ecda2;
      }

      .cls-18 {
        fill: #56cbab;
      }

      .cls-19 {
        fill: #2cc8b6;
      }

      .cls-20 {
        fill: #4acaaf;
      }

      .cls-21 {
        fill: #47caaf;
      }

      .cls-22 {
        fill: #5fcca8;
      }

      .cls-23 {
        fill: #77cf9f;
      }

      .cls-24 {
        fill: url(#Sfumatura_senza_nome_8);
      }

      .cls-25 {
        fill: url(#Sfumatura_senza_nome_5);
      }

      .cls-26 {
        fill: url(#Sfumatura_senza_nome_9);
      }

      .cls-27 {
        fill: url(#Sfumatura_senza_nome_5-3);
      }

      .cls-28 {
        fill: url(#Sfumatura_senza_nome_5-2);
      }

      .cls-29 {
        fill: url(#Sfumatura_senza_nome_5-4);
      }
    </style>
    <linearGradient id="Sfumatura_senza_nome_8" data-name="Sfumatura senza nome 8" x1="70.99" y1="502.07" x2="199.66" y2="500.43" gradientUnits="userSpaceOnUse">
      <stop offset="0" stop-color="#77cf9f"/>
      <stop offset="1" stop-color="#01b7e6"/>
    </linearGradient>
    <linearGradient id="Sfumatura_senza_nome_9" data-name="Sfumatura senza nome 9" x1="244.73" y1="501.08" x2="379.33" y2="501.08" gradientUnits="userSpaceOnUse">
      <stop offset="0" stop-color="#77cf9f"/>
      <stop offset=".17" stop-color="#69cca7"/>
      <stop offset=".5" stop-color="#44c4bd"/>
      <stop offset=".94" stop-color="#09b8e1"/>
      <stop offset="1" stop-color="#01b7e6"/>
    </linearGradient>
    <linearGradient id="Sfumatura_senza_nome_5" data-name="Sfumatura senza nome 5" x1="399.41" y1="501.08" x2="515.87" y2="501.08" gradientUnits="userSpaceOnUse">
      <stop offset="0" stop-color="#77cf9f"/>
      <stop offset="1" stop-color="#01b7e6"/>
    </linearGradient>
    <linearGradient id="Sfumatura_senza_nome_5-2" data-name="Sfumatura senza nome 5" x1="522.33" x2="659.26" xlink:href="#Sfumatura_senza_nome_5"/>
    <linearGradient id="Sfumatura_senza_nome_5-3" data-name="Sfumatura senza nome 5" x1="674.09" x2="797.41" xlink:href="#Sfumatura_senza_nome_5"/>
    <linearGradient id="Sfumatura_senza_nome_5-4" data-name="Sfumatura senza nome 5" x1="812.34" x2="949.27" xlink:href="#Sfumatura_senza_nome_5"/>
  </defs>
  <g>
    <path class="cls-9" d="M762.53,344.83c-22.48-.16-44.97-.31-67.45-.5-.99,0-1.97-.34-2.96-.53,.03-1.78,.08-3.57,.08-5.35,0-55.81,0-111.62,0-167.43,1.02-.34,2.04-.68,3.05-1.02,22.42,0,44.85,0,67.27,0,0,58.28,0,116.55,0,174.83Z"/>
    <path class="cls-8" d="M762.53,344.83c0-58.28,0-116.55,0-174.83h68.8c0,58.28,0,116.55,0,174.83-22.93,0-45.87,0-68.8,0Z"/>
    <path class="cls-3" d="M959,787.76c-.19,.16-.51,.3-.54,.48-3.32,20.32-16.71,31.25-35.12,37.21-14.01,4.54-28.53,4.73-43.08,4.23,0-10.85,0-21.7,0-32.55,5.34-.07,10.74,.35,15.99-.34,4.93-.65,10.11-1.71,14.46-3.96,6.92-3.58,9.79-10.14,9.18-17.9-.58-7.44-5.18-11.89-11.81-14.49-2-.78-4.09-1.58-6.2-1.77-7.19-.66-14.41-1.06-21.62-1.56v-32.15c4.32-.22,8.65-.28,12.95-.7,9.89-.97,16.94-6.61,18.4-14.5,2.05-11.03-3.72-19.27-15.4-21.28-5.23-.9-10.62-.87-15.94-1.26,0-10.81,0-21.61,0-32.42,15.06-.38,30.1-.17,44.38,5.39,22.96,8.94,32.97,34.91,22.07,56.76-4.73,9.48-12.63,15.42-22.17,19.44-1.12,.47-2.27,.87-3.65,1.4,4.6,1.57,9.01,2.7,13.11,4.54,14.29,6.4,22.35,17.52,24.33,33.06,.07,.57,.44,1.1,.67,1.65v10.7Z"/>
    <path class="cls-7" d="M497.25,205.44h-18.15v32.92c5.81,0,11.6,0,17.39,0,0,11.81,0,23.62,0,35.42h-17.4v35.96c6.32,0,12.61,0,18.91,0,0,11.74,.02,23.48,.02,35.22h-57.36c-.06-1.22-.16-2.21-.16-3.19,0-56.37,0-112.74,0-169.11,0-.88,.12-1.77,.18-2.65,18.86,0,37.71,0,56.57,0,0,11.81-.01,23.62-.02,35.43Z"/>
    <path class="cls-10" d="M831.33,344.83c0-58.28,0-116.55,0-174.83,15.03,0,30.07,0,45.1,0,1.02,.32,2.04,.63,3.06,.95,0,57.68,0,115.36,0,173.03-9.6,.34-19.2,.78-28.8,.97-6.45,.13-12.91-.07-19.36-.13Z"/>
    <path class="cls-13" d="M274.82,170h74.92v65c-3.61,.18-6.76,.33-9.9,.48-13.77,0-27.54,0-41.31,0h-23.71v-65.49Z"/>
    <path class="cls-21" d="M261.07,344.96h-24.47V170h24.46c0,58.32,0,116.64,0,174.95Z"/>
    <path class="cls-17" d="M114.29,344.96h-20.51V204.52c-3.58-.17-6.82-.32-10.05-.48,0-11.35-.01-22.69-.02-34.04h30.58c0,58.32,0,116.64,0,174.96Z"/>
    <path class="cls-12" d="M114.29,344.96c0-58.32,0-116.64,0-174.96h29.05c0,11.34,0,22.68,0,34.03h-11.13v140.93h-17.92Z"/>
    <path class="cls-16" d="M261.07,344.96c0-58.32,0-116.64,0-174.95h13.76v65.49c8.11,0,15.91,0,23.71,0,0,11.26,0,22.51,0,33.77h-23.51v75.69h-13.95Z"/>
    <path class="cls-6" d="M387.96,170c.08,1.26,.24,2.53,.24,3.79,.01,55.73,.01,111.47,.01,167.2,0,1.24,0,2.48,0,3.96h-18.59c.25-58.32,.5-116.64,.76-174.95,5.86,0,11.72,0,17.58,0Z"/>
    <path class="cls-11" d="M497.25,205.44c0-11.81,.01-23.62,.02-35.43h61.92v35.32c-1.08,.15-1.92,.38-2.77,.38-18.97,.02-37.94,.02-56.92,0-.75,0-1.5-.17-2.26-.26Z"/>
    <path class="cls-15" d="M339.84,235.49c3.14-.15,6.28-.31,9.9-.48v-65h9.17c0,58.32,0,116.64,0,174.96h-9.04v-75.69c-3.58,0-6.82,0-10.07,0,.01-11.26,.02-22.52,.03-33.79Z"/>
    <path class="cls-14" d="M358.91,344.96c0-58.32,0-116.64,0-174.96h11.47c-.25,58.32-.5,116.64-.76,174.95-3.57,0-7.14,0-10.71,0Z"/>
    <path class="cls-23" d="M83.71,170c0,11.35,.01,22.69,.02,34.04-13.15,0-26.31,0-39.77,0v-34.04h39.75Z"/>
    <path class="cls-22" d="M143.34,204.03c0-11.34,0-22.68,0-34.03h38.99v34.03h-38.99Z"/>
    <path class="cls-6" d="M369.62,654.86c25.22,0,50.45,0,75.67,0,0,58.23,0,116.47,0,174.7-25.22,0-50.44,0-75.66,0,.14-8.63,.3-17.25,.41-25.88,.11-8.37,.2-16.74,.27-25.11,.05-5.98,.06-11.96,.04-17.93,0-1.39-.33-2.77-.33-4.16-.01-9.51,0-19.03,.04-28.54,0-1.9,.25-3.8,.19-5.69-.14-4.49-.54-8.97-.57-13.46-.04-5.55,.2-11.11,.3-16.66,.14-7.94,.35-15.87,.33-23.81-.01-4.49-.45-8.97-.69-13.46Z"/>
    <path class="cls-4" d="M690.68,827.38c-6.56,.8-13.1,2.2-19.67,2.29-21.52,.3-43.04,.13-64.57,.14-.62,0-1.23-.06-2.29-.12v-174.78c.73-.05,1.58-.17,2.43-.17,19.61,0,39.23-.26,58.83,.15,8.46,.18,16.89,1.75,25.34,2.69-.03,12.07-.06,24.14-.09,36.21-15.68-4.41-31.7-3.4-47.95-3.32v103.53c16.21,.16,32.23,.89,47.97-3.13,0,12.17,0,24.33,0,36.5Z"/>
    <path class="cls-3" d="M879.49,343.98c0-57.68,0-115.36,0-173.03,36.62,4.26,68.15,34.71,74.07,71.53,7.61,47.31-21.67,90.38-68.45,100.64-1.85,.41-3.75,.58-5.63,.87Z"/>
    <path class="cls-5" d="M692.21,171.03c0,55.81,0,111.62,0,167.43,0,1.78-.05,3.57-.08,5.35-25.67-3.7-45.72-16.6-60.01-37.98-33.52-50.13-6.96-118.53,51.51-133.21,2.82-.71,5.73-1.07,8.59-1.59Z"/>
    <path class="cls-7" d="M445.29,829.56c0-58.23,0-116.47,0-174.7,16.5-.5,32.95-.67,48.59,5.91,1.15,.49,2.27,1.08,3.4,1.62,0,51.23,0,102.46,.04,153.7,0,1.85,.55,3.71,.84,5.56-10.26,5.22-21.3,7.4-32.66,7.94-6.72,.32-13.47,0-20.2-.03Z"/>
    <path class="cls-10" d="M880.26,797.14c0,10.85,0,21.7,0,32.55h-58.66v-174.87h58.66c0,10.81,0,21.61,0,32.42-6.69,0-13.39,0-20.41,0v37.74h20.41v32.15h-20.36v39.88c3.49,0,6.78-.02,10.07,0,3.43,.03,6.86,.09,10.29,.14Z"/>
    <path class="cls-20" d="M260.31,829.56c-14.27,0-28.54,0-42.8,0,0-58.23,0-116.47,0-174.7,14.27,0,28.54,0,42.81,0,0,58.23,0,116.47,0,174.7Z"/>
    <path class="cls-16" d="M260.31,829.56c0-58.23,0-116.47,0-174.7,14.02,0,28.03,0,42.05,0,0,58.23,0,116.46,0,174.69-14.02,0-28.03,0-42.05,0Z"/>
    <path class="cls-2" d="M690.66,693.79c.03-12.07,.06-24.14,.09-36.21,38.61,5.63,67.65,27.36,73.71,69.29,4.49,31.06-3.56,58.38-27.91,79.49-13.16,11.41-28.77,17.97-45.88,21.02,0-12.17,0-24.33,0-36.5,.7-.29,1.39-.62,2.11-.85,38.28-12.09,39.64-61.05,21.91-80.68-6.7-7.42-15-11.96-24.04-15.55Z"/>
    <path class="cls-18" d="M217.49,654.86c0,58.23,0,116.47,0,174.7-12.23,0-24.46,0-36.7,0,0-58.23,0-116.47,0-174.7,12.23,0,24.46,0,36.69,0Z"/>
    <path class="cls-12" d="M115.02,660.76c11.26-4.79,23.04-6.47,35.2-5.91,0,58.24,0,116.47,0,174.71-12.13,.5-23.9-1.19-35.17-5.88-.01-54.31-.02-108.61-.03-162.92Z"/>
    <path class="cls-19" d="M302.35,829.55c0-58.23,0-116.46,0-174.69,11.47,0,22.93,0,34.4,0,0,58.24,0,116.47,0,174.71-11.47,0-22.93,0-34.4-.01Z"/>
    <path class="cls-1" d="M498.15,821.64c-.29-1.85-.83-3.71-.84-5.56-.05-51.23-.04-102.46-.04-153.7,18.32,7.67,31.93,20.59,41.41,37.85,23.87,43.44,6.63,98.25-37.72,120.29-.9,.45-1.88,.75-2.82,1.12Z"/>
    <path class="cls-22" d="M150.22,829.56c0-58.24,0-116.47,0-174.71,10.19,0,20.39,0,30.58,0,0,58.23,0,116.47,0,174.7-10.2,0-20.39,0-30.59,0Z"/>
    <path class="cls-15" d="M336.75,829.56c0-58.24,0-116.47,0-174.71,7.13,0,14.27,0,21.4,0,0,58.23,0,116.46,0,174.69-7.13,0-14.27,0-21.4,.01Z"/>
    <path class="cls-17" d="M115.02,660.76c.01,54.31,.02,108.61,.03,162.92-8.21-2.65-15.48-7-22.16-12.39,0-46.05,.01-92.1,.02-138.14,6.59-5.53,13.95-9.68,22.12-12.38Z"/>
    <path class="cls-23" d="M92.9,673.15c0,46.05-.01,92.1-.02,138.14-18.01-13.74-29.15-31.9-32.68-54.12-4.9-30.87,4.06-57.52,26.78-79.27,1.82-1.74,3.94-3.18,5.92-4.75Z"/>
    <path class="cls-11" d="M498.04,344.96c0-11.74-.02-23.48-.02-35.22,1.64-.1,3.28-.3,4.92-.3,18.83-.02,37.65-.01,56.48-.01,1.37,0,2.74,0,4.32,0v35.53h-65.7Z"/>
    <path class="cls-11" d="M496.5,273.78c0-11.81,0-23.62,0-35.42,19.2,0,38.41,0,57.87,0v35.42h-57.86Z"/>
    <path class="cls-14" d="M358.15,829.55c0-58.23,0-116.46,0-174.69,3.82,0,7.65,0,11.47,0,.24,4.49,.68,8.97,.69,13.46,.03,7.93-.19,15.87-.33,23.81-.09,5.55-.33,11.11-.3,16.66,.03,4.49,.43,8.97,.57,13.46,.06,1.89-.18,3.79-.19,5.69-.04,9.51-.06,19.02-.04,28.54,0,1.39,.32,2.77,.33,4.16,.02,5.98,0,11.96-.04,17.93-.07,8.37-.16,16.74-.27,25.11-.12,8.63-.27,17.25-.41,25.88-3.83,0-7.65,0-11.48,0Z"/>
    <path class="cls-19" d="M339.84,235.49c-.01,11.26-.02,22.52-.03,33.79-13.76,0-27.52,0-41.28,0,0-11.26,0-22.51,0-33.77,13.77,0,27.54,0,41.31,0Z"/>
    <path class="cls-17" d="M114.97,531.67c2.32,.93,2.82,2.47,1.53,4.6-.51-1.53-1.02-3.06-1.53-4.6Z"/>
    <path class="cls-23" d="M87.55,587.29c.18-.19,.37-.38,.55-.58-.18,.19-.37,.38-.55,.58Z"/>
    <path class="cls-13" d="M880.26,797.14c-3.43-.05-6.86-.12-10.29-.14-3.29-.02-6.58,0-10.07,0v-39.88h20.36c7.21,.5,14.43,.9,21.62,1.56,2.11,.19,4.2,.99,6.2,1.77,6.63,2.6,11.22,7.05,11.81,14.49,.61,7.76-2.26,14.32-9.18,17.9-4.35,2.26-9.53,3.31-14.46,3.96-5.25,.69-10.65,.27-15.99,.34Z"/>
    <path class="cls-13" d="M880.26,724.97c-6.82,0-13.65,0-20.41,0v-37.74c7.02,0,13.72,0,20.41,0,5.32,.39,10.71,.36,15.94,1.26,11.68,2.01,17.45,10.25,15.4,21.28-1.47,7.89-8.51,13.53-18.4,14.5-4.3,.42-8.63,.48-12.95,.7Z"/>
    <path class="cls-13" d="M690.66,693.79c9.04,3.59,17.34,8.13,24.04,15.55,17.73,19.64,16.36,68.59-21.91,80.68-.72,.23-1.41,.56-2.11,.85-15.74,4.02-31.76,3.29-47.97,3.13v-103.53c16.25-.08,32.27-1.09,47.95,3.32Z"/>
  </g>
  <g>
    <path class="cls-24" d="M197.93,573.83v-98.21h-.81l-39.53,96.8h-19.16l-39.53-96.8h-.81v98.21h-27.12v-145.5h35.29l41.34,103.15h.81l41.34-103.15h35.29v145.5h-27.12Z"/>
    <path class="cls-26" d="M314.8,576.35c-43.46,0-70.08-28.43-70.08-75.72s26.62-74.82,69.37-74.82c33.98,0,59.59,20.07,63.93,49.51h-30.55c-4.44-15.23-16.84-24.3-33.27-24.3-24,0-38.42,18.25-38.42,49.21s15.33,50.82,39.53,50.82c19.86,0,33.68-12.2,34.28-30.25l.1-2.32h-31.66v-22.18h61.3v16.43c0,39.63-24,63.62-64.53,63.62Z"/>
    <path class="cls-25" d="M429.86,573.83h-30.45v-145.5h59.59c33.48,0,52.63,17.65,52.63,46.38,0,18.65-9.68,34.79-26.42,41.34l30.65,57.78h-34.48l-27.12-53.24h-24.4v53.24Zm0-75.32h26.22c15.33,0,24.3-8.77,24.3-23.19s-9.48-23.19-24.6-23.19h-25.91v46.38Z"/>
    <path class="cls-28" d="M615.8,538.54h-51.12l-11.09,35.29h-31.26l50.52-145.5h35.79l50.62,145.5h-32.37l-11.09-35.29Zm-44.57-22.79h38.01l-18.65-59.59h-.71l-18.65,59.59Z"/>
    <path class="cls-27" d="M674.09,573.83v-145.5h25.41l67.96,94.78h.81v-94.78h29.14v145.5h-25.21l-68.06-95.28h-.91v95.28h-29.14Z"/>
    <path class="cls-29" d="M905.81,538.54h-51.12l-11.09,35.29h-31.26l50.52-145.5h35.79l50.62,145.5h-32.37l-11.09-35.29Zm-44.57-22.79h38.01l-18.65-59.59h-.71l-18.65,59.59Z"/>
  </g>
</svg>